{
  "accessors": [
    {
      "bufferView": 1,
      "componentType": 5126,
      "count": 385,
      "max": [
        3047.65380859375,
        3023.497802734375,
        841.3370971679688
      ],
      "min": [
        -3047.642822265625,
        -3023.545166015625,
        -0.0014753000577911735
      ],
      "type": "VEC3"
    },
    {
      "bufferView": 0,
      "componentType": 5125,
      "count": 1116,
      "type": "SCALAR"
    },
    {
      "bufferView": 1,
      "byteOffset": 4620,
      "componentType": 5126,
      "count": 8,
      "max": [
        -59.61036682128906,
        306.5609436035156,
        251.96702575683594
      ],
      "min": [
        -1085.51025390625,
        -470.80426025390625,
        251.96702575683594
      ],
      "type": "VEC3"
    },
    {
      "bufferView": 1,
      "byteOffset": 4716,
      "componentType": 5126,
      "count": 8,
      "max": [
        0.0,
        0.0,
        1.0
      ],
      "min": [
        0.0,
        0.0,
        -1.0
      ],
      "type": "VEC3"
    },
    {
      "bufferView": 0,
      "byteOffset": 4464,
      "componentType": 5125,
      "count": 12,
      "type": "SCALAR"
    },
    {
      "bufferView": 1,
      "byteOffset": 4812,
      "componentType": 5126,
      "count": 8,
      "max": [
        356.3404541015625,
        1845.246337890625,
        537.4512939453125
      ],
      "min": [
        -234.67906188964844,
        1530.53662109375,
        504.49066162109375
      ],
      "type": "VEC3"
    },
    {
      "bufferView": 1,
      "byteOffset": 4908,
      "componentType": 5126,
      "count": 8,
      "max": [
        0.07976330071687698,
        0.22945620119571686,
        0.9700452089309692
      ],
      "min": [
        -0.07976330071687698,
        -0.22945620119571686,
        -0.9700452089309692
      ],
      "type": "VEC3"
    },
    {
      "bufferView": 0,
      "byteOffset": 4512,
      "componentType": 5125,
      "count": 12,
      "type": "SCALAR"
    },
    {
      "bufferView": 1,
      "byteOffset": 5004,
      "componentType": 5126,
      "count": 14,
      "max": [
        540.90869140625,
        1072.6707763671875,
        841.3370971679688
      ],
      "min": [
        -94.39051818847656,
        285.3115539550781,
        841.3370971679688
      ],
      "type": "VEC3"
    },
    {
      "bufferView": 1,
      "byteOffset": 5172,
      "componentType": 5126,
      "count": 14,
      "max": [
        0.0,
        0.0,
        1.0
      ],
      "min": [
        0.0,
        0.0,
        -1.0
      ],
      "type": "VEC3"
    },
    {
      "bufferView": 0,
      "byteOffset": 4560,
      "componentType": 5125,
      "count": 30,
      "type": "SCALAR"
    },
    {
      "bufferView": 1,
      "byteOffset": 5340,
      "componentType": 5126,
      "count": 112,
      "max": [
        1605.774169921875,
        1954.2457275390625,
        684.7938232421875
      ],
      "min": [
        -1507.4931640625,
        -1705.7808837890625,
        682.6757202148438
      ],
      "type": "VEC3"
    },
    {
      "bufferView": 1,
      "byteOffset": 6684,
      "componentType": 5126,
      "count": 112,
      "max": [
        0.0,
        0.0,
        1.0
      ],
      "min": [
        0.0,
        0.0,
        -1.0
      ],
      "type": "VEC3"
    },
    {
      "bufferView": 0,
      "byteOffset": 4680,
      "componentType": 5125,
      "count": 288,
      "type": "SCALAR"
    },
    {
      "bufferView": 1,
      "byteOffset": 8028,
      "componentType": 5126,
      "count": 18,
      "max": [
        1295.9874267578125,
        1517.9044189453125,
        530.25048828125
      ],
      "min": [
        -227.43128967285156,
        -511.36590576171875,
        526.4473266601563
      ],
      "type": "VEC3"
    },
    {
      "bufferView": 1,
      "byteOffset": 8244,
      "componentType": 5126,
      "count": 18,
      "max": [
        0.0,
        0.0,
        1.0
      ],
      "min": [
        0.0,
        0.0,
        -1.0
      ],
      "type": "VEC3"
    },
    {
      "bufferView": 0,
      "byteOffset": 5832,
      "componentType": 5125,
      "count": 30,
      "type": "SCALAR"
    },
    {
      "bufferView": 1,
      "byteOffset": 8460,
      "componentType": 5126,
      "count": 48,
      "max": [
        3047.65380859375,
        1679.74267578125,
        558.0536499023438
      ],
      "min": [
        1563.142578125,
        -932.6846923828125,
        558.0536499023438
      ],
      "type": "VEC3"
    },
    {
      "bufferView": 1,
      "byteOffset": 9036,
      "componentType": 5126,
      "count": 48,
      "max": [
        0.0,
        0.0,
        1.0
      ],
      "min": [
        0.0,
        0.0,
        -1.0
      ],
      "type": "VEC3"
    },
    {
      "bufferView": 0,
      "byteOffset": 5952,
      "componentType": 5125,
      "count": 132,
      "type": "SCALAR"
    },
    {
      "bufferView": 1,
      "byteOffset": 9612,
      "componentType": 5126,
      "count": 28,
      "max": [
        1831.6910400390625,
        2603.183837890625,
        184.25048828125
      ],
      "min": [
        -504.9059753417969,
        1220.5352783203125,
        184.25048828125
      ],
      "type": "VEC3"
    },
    {
      "bufferView": 1,
      "byteOffset": 9948,
      "componentType": 5126,
      "count": 28,
      "max": [
        0.0,
        0.0,
        1.0
      ],
      "min": [
        0.0,
        0.0,
        -1.0
      ],
      "type": "VEC3"
    },
    {
      "bufferView": 0,
      "byteOffset": 6480,
      "componentType": 5125,
      "count": 72,
      "type": "SCALAR"
    },
    {
      "bufferView": 1,
      "byteOffset": 10284,
      "componentType": 5126,
      "count": 14,
      "max": [
        1252.5457763671875,
        1204.093505859375,
        -0.0014751000562682748
      ],
      "min": [
        97.65965270996094,
        -2446.324951171875,
        -0.0014752000570297241
      ],
      "type": "VEC3"
    },
    {
      "bufferView": 1,
      "byteOffset": 10452,
      "componentType": 5126,
      "count": 14,
      "max": [
        0.0,
        0.0,
        1.0
      ],
      "min": [
        0.0,
        0.0,
        -1.0
      ],
      "type": "VEC3"
    },
    {
      "bufferView": 0,
      "byteOffset": 6768,
      "componentType": 5125,
      "count": 18,
      "type": "SCALAR"
    },
    {
      "bufferView": 1,
      "byteOffset": 10620,
      "componentType": 5126,
      "count": 42,
      "max": [
        438.7584228515625,
        -172.056884765625,
        633.0693969726563
      ],
      "min": [
        -1304.15478515625,
        -1494.311767578125,
        613.3843383789063
      ],
      "type": "VEC3"
    },
    {
      "bufferView": 1,
      "byteOffset": 11124,
      "componentType": 5126,
      "count": 42,
      "max": [
        0.0,
        0.0,
        1.0
      ],
      "min": [
        0.0,
        0.0,
        -1.0
      ],
      "type": "VEC3"
    },
    {
      "bufferView": 0,
      "byteOffset": 6840,
      "componentType": 5125,
      "count": 90,
      "type": "SCALAR"
    },
    {
      "bufferView": 1,
      "byteOffset": 11628,
      "componentType": 5126,
      "count": 214,
      "max": [
        2199.424072265625,
        3023.497802734375,
        717.715087890625
      ],
      "min": [
        -3047.642822265625,
        -3023.545166015625,
        712.9906616210938
      ],
      "type": "VEC3"
    },
    {
      "bufferView": 1,
      "byteOffset": 14196,
      "componentType": 5126,
      "count": 214,
      "max": [
        0.0017953000497072935,
        0.0006487999926321208,
        1.0
      ],
      "min": [
        -0.0017953000497072935,
        -0.0006487999926321208,
        -1.0
      ],
      "type": "VEC3"
    },
    {
      "bufferView": 0,
      "byteOffset": 7200,
      "componentType": 5125,
      "count": 546,
      "type": "SCALAR"
    },
    {
      "bufferView": 1,
      "byteOffset": 16764,
      "componentType": 5126,
      "count": 934,
      "max": [
        3047.65380859375,
        3023.497802734375,
        841.3370971679688
      ],
      "min": [
        -3047.642822265625,
        -3023.545166015625,
        -0.0014753000577911735
      ],
      "type": "VEC3"
    },
    {
      "bufferView": 1,
      "byteOffset": 27972,
      "componentType": 5126,
      "count": 934,
      "max": [
        0.9495214819908142,
        0.9552503824234009,
        1.0
      ],
      "min": [
        -0.950888991355896,
        -0.9574579000473022,
        -1.0
      ],
      "type": "VEC3"
    },
    {
      "bufferView": 0,
      "byteOffset": 9384,
      "componentType": 5125,
      "count": 1692,
      "type": "SCALAR"
    }
  ],
  "asset": {
    "extras": {
      "author": "natalia.chojnacka (https://sketchfab.com/natalia.chojnacka)",
      "license": "CC-BY-4.0 (http://creativecommons.org/licenses/by/4.0/)",
      "source": "https://sketchfab.com/3d-models/chemiczny-ec0bc50d46114bf8b3086417399db8c6",
      "title": "chemiczny"
    },
    "generator": "Sketchfab-12.37.0",
    "version": "2.0"
  },
  "bufferViews": [
    {
      "buffer": 0,
      "byteLength": 16152,
      "name": "floatBufferViews",
      "target": 34963
    },
    {
      "buffer": 0,
      "byteLength": 39180,
      "byteOffset": 16152,
      "byteStride": 12,
      "name": "floatBufferViews",
      "target": 34962
    }
  ],
  "buffers": [
    {
      "byteLength": 55332,
      "uri": "scene.bin"
    }
  ],
  "materials": [
    {
      "name": "edge_color000255",
      "pbrMetallicRoughness": {
        "metallicFactor": 0.0,
        "roughnessFactor": 0.6
      }
    },
    {
      "name": "auto",
      "pbrMetallicRoughness": {
        "baseColorFactor": [
          0.541176,
          0.580392,
          0.607843,
          1.0
        ],
        "metallicFactor": 0.0,
        "roughnessFactor": 0.6
      }
    },
    {
      "name": "auto_1",
      "pbrMetallicRoughness": {
        "baseColorFactor": [
          0.541176,
          0.580392,
          0.607843,
          1.0
        ],
        "metallicFactor": 0.0,
        "roughnessFactor": 0.6
      }
    },
    {
      "name": "auto_2",
      "pbrMetallicRoughness": {
        "baseColorFactor": [
          0.541176,
          0.580392,
          0.607843,
          1.0
        ],
        "metallicFactor": 0.0,
        "roughnessFactor": 0.6
      }
    },
    {
      "name": "auto_3",
      "pbrMetallicRoughness": {
        "baseColorFactor": [
          0.541176,
          0.580392,
          0.607843,
          1.0
        ],
        "metallicFactor": 0.0,
        "roughnessFactor": 0.6
      }
    },
    {
      "name": "auto_4",
      "pbrMetallicRoughness": {
        "baseColorFactor": [
          0.541176,
          0.580392,
          0.607843,
          1.0
        ],
        "metallicFactor": 0.0,
        "roughnessFactor": 0.6
      }
    },
    {
      "name": "auto_5",
      "pbrMetallicRoughness": {
        "baseColorFactor": [
          0.541176,
          0.580392,
          0.607843,
          1.0
        ],
        "metallicFactor": 0.0,
        "roughnessFactor": 0.6
      }
    },
    {
      "name": "auto_7",
      "pbrMetallicRoughness": {
        "baseColorFactor": [
          0.541176,
          0.580392,
          0.607843,
          1.0
        ],
        "metallicFactor": 0.0,
        "roughnessFactor": 0.6
      }
    },
    {
      "name": "auto_6",
      "pbrMetallicRoughness": {
        "baseColorFactor": [
          0.541176,
          0.580392,
          0.607843,
          1.0
        ],
        "metallicFactor": 0.0,
        "roughnessFactor": 0.6
      }
    },
    {
      "name": "auto_8",
      "pbrMetallicRoughness": {
        "baseColorFactor": [
          0.541176,
          0.580392,
          0.607843,
          1.0
        ],
        "metallicFactor": 0.0,
        "roughnessFactor": 0.6
      }
    },
    {
      "name": "auto_9",
      "pbrMetallicRoughness": {
        "baseColorFactor": [
          0.541176,
          0.580392,
          0.607843,
          1.0
        ],
        "metallicFactor": 0.0,
        "roughnessFactor": 0.6
      }
    },
    {
      "name": "material",
      "pbrMetallicRoughness": {
        "baseColorFactor": [
          0.882353,
          0.882353,
          0.784314,
          1.0
        ],
        "metallicFactor": 0.0,
        "roughnessFactor": 0.6
      }
    }
  ],
  "meshes": [
    {
      "name": "Material3",
      "primitives": [
        {
          "attributes": {
            "POSITION": 0
          },
          "indices": 1,
          "material": 0,
          "mode": 1
        }
      ]
    },
    {
      "name": "Material2",
      "primitives": [
        {
          "attributes": {
            "NORMAL": 3,
            "POSITION": 2
          },
          "indices": 4,
          "material": 1,
          "mode": 4
        }
      ]
    },
    {
      "name": "Material2",
      "primitives": [
        {
          "attributes": {
            "NORMAL": 6,
            "POSITION": 5
          },
          "indices": 7,
          "material": 2,
          "mode": 4
        }
      ]
    },
    {
      "name": "Material2",
      "primitives": [
        {
          "attributes": {
            "NORMAL": 9,
            "POSITION": 8
          },
          "indices": 10,
          "material": 3,
          "mode": 4
        }
      ]
    },
    {
      "name": "Material2",
      "primitives": [
        {
          "attributes": {
            "NORMAL": 12,
            "POSITION": 11
          },
          "indices": 13,
          "material": 4,
          "mode": 4
        }
      ]
    },
    {
      "name": "Material2",
      "primitives": [
        {
          "attributes": {
            "NORMAL": 15,
            "POSITION": 14
          },
          "indices": 16,
          "material": 5,
          "mode": 4
        }
      ]
    },
    {
      "name": "Material2",
      "primitives": [
        {
          "attributes": {
            "NORMAL": 18,
            "POSITION": 17
          },
          "indices": 19,
          "material": 6,
          "mode": 4
        }
      ]
    },
    {
      "name": "Material2",
      "primitives": [
        {
          "attributes": {
            "NORMAL": 21,
            "POSITION": 20
          },
          "indices": 22,
          "material": 7,
          "mode": 4
        }
      ]
    },
    {
      "name": "Material2",
      "primitives": [
        {
          "attributes": {
            "NORMAL": 24,
            "POSITION": 23
          },
          "indices": 25,
          "material": 8,
          "mode": 4
        }
      ]
    },
    {
      "name": "Material2",
      "primitives": [
        {
          "attributes": {
            "NORMAL": 27,
            "POSITION": 26
          },
          "indices": 28,
          "material": 9,
          "mode": 4
        }
      ]
    },
    {
      "name": "Material2",
      "primitives": [
        {
          "attributes": {
            "NORMAL": 30,
            "POSITION": 29
          },
          "indices": 31,
          "material": 10,
          "mode": 4
        }
      ]
    },
    {
      "name": "Material2",
      "primitives": [
        {
          "attributes": {
            "NORMAL": 33,
            "POSITION": 32
          },
          "indices": 34,
          "material": 11,
          "mode": 4
        }
      ]
    }
  ],
  "nodes": [
    {
      "children": [
        1
      ],
      "matrix": [
        1.0,
        0.0,
        0.0,
        0.0,
        0.0,
        2.220446049250313e-16,
        -1.0,
        0.0,
        0.0,
        1.0,
        2.220446049250313e-16,
        0.0,
        0.0,
        0.0,
        0.0,
        1.0
      ],
      "name": "Sketchfab_model"
    },
    {
      "children": [
        2,
        3,
        4,
        5,
        6,
        7,
        8,
        9,
        10,
        11,
        12,
        13,
        14
      ],
      "name": "Collada visual scene group"
    },
    {
      "mesh": 0,
      "name": "Material3"
    },
    {
      "mesh": 1,
      "name": "Material2"
    },
    {
      "mesh": 2,
      "name": "Material2"
    },
    {
      "mesh": 3,
      "name": "Material2"
    },
    {
      "mesh": 4,
      "name": "Material2"
    },
    {
      "mesh": 5,
      "name": "Material2"
    },
    {
      "mesh": 6,
      "name": "Material2"
    },
    {
      "mesh": 7,
      "name": "Material2"
    },
    {
      "mesh": 8,
      "name": "Material2"
    },
    {
      "mesh": 9,
      "name": "Material2"
    },
    {
      "mesh": 10,
      "name": "Material2"
    },
    {
      "mesh": 11,
      "name": "Material2"
    },
    {
      "children": [
        15
      ],
      "name": "SketchUp"
    },
    {
      "children": [
        16
      ],
      "matrix": [
        1.0,
        0.0,
        0.0,
        0.0,
        0.0,
        1.0,
        0.0,
        0.0,
        0.0,
        0.0,
        1.0,
        0.0,
        -239.1349182,
        -260.8744507,
        14901.1181641,
        1.0
      ],
      "name": "skp_camera_Last_Saved_SketchUp_View"
    },
    {
      "name": "ID1"
    }
  ],
  "scene": 0,
  "scenes": [
    {
      "name": "Sketchfab_Scene",
      "nodes": [
        0
      ]
    }
  ]
}
