{
  "accessors": [
    {
      "bufferView": 2,
      "componentType": 5126,
      "count": 112,
      "max": [
        62.992130279541016,
        5.3419952392578125,
        97.703643798828125
      ],
      "min": [
        -62.992130279541016,
        -64.397125244140625,
        0
      ],
      "type": "VEC3"
    },
    {
      "bufferView": 2,
      "byteOffset": 1344,
      "componentType": 5126,
      "count": 112,
      "max": [
        1,
        1,
        1
      ],
      "min": [
        -1,
        -1,
        -1
      ],
      "type": "VEC3"
    },
    {
      "bufferView": 3,
      "componentType": 5126,
      "count": 112,
      "max": [
        1,
        1,
        0.60896718502044678,
        1
      ],
      "min": [
        -1,
        -1,
        -0.60896742343902588,
        1
      ],
      "type": "VEC4"
    },
    {
      "bufferView": 1,
      "componentType": 5126,
      "count": 112,
      "max": [
        34.869560241699219,
        7.152463436126709
      ],
      "min": [
        -34.869556427001953,
        -6.5730719566345215
      ],
      "type": "VEC2"
    },
    {
      "bufferView": 0,
      "componentType": 5125,
      "count": 186,
      "max": [
        111
      ],
      "min": [
        0
      ],
      "type": "SCALAR"
    },
    {
      "bufferView": 2,
      "byteOffset": 2688,
      "componentType": 5126,
      "count": 1740,
      "max": [
        59.842521667480469,
        5.3419990539550781,
        97.703643798828125
      ],
      "min": [
        -61.023628234863281,
        -64.397109985351562,
        -10.629920959472656
      ],
      "type": "VEC3"
    },
    {
      "bufferView": 2,
      "byteOffset": 23568,
      "componentType": 5126,
      "count": 1740,
      "max": [
        1,
        1,
        1
      ],
      "min": [
        -1,
        -1,
        -1
      ],
      "type": "VEC3"
    },
    {
      "bufferView": 3,
      "byteOffset": 1792,
      "componentType": 5126,
      "count": 1740,
      "max": [
        1,
        1,
        1,
        1
      ],
      "min": [
        -1,
        -1,
        -1,
        -1
      ],
      "type": "VEC4"
    },
    {
      "bufferView": 1,
      "byteOffset": 896,
      "componentType": 5126,
      "count": 1740,
      "max": [
        34.869556427001953,
        7.152463436126709
      ],
      "min": [
        -34.869552612304688,
        -7.82135009765625
      ],
      "type": "VEC2"
    },
    {
      "bufferView": 0,
      "byteOffset": 744,
      "componentType": 5125,
      "count": 2784,
      "max": [
        1739
      ],
      "min": [
        0
      ],
      "type": "SCALAR"
    },
    {
      "bufferView": 2,
      "byteOffset": 44448,
      "componentType": 5126,
      "count": 12,
      "max": [
        -58.267711639404297,
        -2.7559051513671875,
        78.740158081054688
      ],
      "min": [
        -59.842525482177734,
        -56.299213409423828,
        3.9370098114013672
      ],
      "type": "VEC3"
    },
    {
      "bufferView": 2,
      "byteOffset": 44592,
      "componentType": 5126,
      "count": 12,
      "max": [
        1,
        1.4249016544454207e-07,
        5.099648348050323e-08
      ],
      "min": [
        -1,
        -1.4249016544454207e-07,
        -5.099648348050323e-08
      ],
      "type": "VEC3"
    },
    {
      "bufferView": 3,
      "byteOffset": 29632,
      "componentType": 5126,
      "count": 12,
      "max": [
        -7.1245075616843678e-08,
        -1,
        2.9997940487191954e-07,
        1
      ],
      "min": [
        -1.424901938662515e-07,
        -1,
        2.1093038071740011e-07,
        -1
      ],
      "type": "VEC4"
    },
    {
      "bufferView": 1,
      "byteOffset": 14816,
      "componentType": 5126,
      "count": 12,
      "max": [
        0.96575331687927246,
        0.97499996423721313
      ],
      "min": [
        0.034246593713760376,
        0.025000035762786865
      ],
      "type": "VEC2"
    },
    {
      "bufferView": 0,
      "byteOffset": 11880,
      "componentType": 5125,
      "count": 12,
      "max": [
        11
      ],
      "min": [
        0
      ],
      "type": "SCALAR"
    },
    {
      "bufferView": 2,
      "byteOffset": 44736,
      "componentType": 5126,
      "count": 66,
      "max": [
        62.992130279541016,
        5.5817489624023438,
        98.095085144042969
      ],
      "min": [
        -62.992130279541016,
        -64.636871337890625,
        83.978111267089844
      ],
      "type": "VEC3"
    },
    {
      "bufferView": 2,
      "byteOffset": 45528,
      "componentType": 5126,
      "count": 66,
      "max": [
        1,
        0.79318922758102417,
        0.99426740407943726
      ],
      "min": [
        -1,
        -0.79319858551025391,
        -0.60897535085678101
      ],
      "type": "VEC3"
    },
    {
      "bufferView": 3,
      "byteOffset": 29824,
      "componentType": 5126,
      "count": 66,
      "max": [
        1.478088336170913e-07,
        1,
        0.79318922758102417,
        1
      ],
      "min": [
        -3.2772564395600057e-07,
        -0.85595321655273438,
        -0.79319864511489868,
        -1
      ],
      "type": "VEC4"
    },
    {
      "bufferView": 1,
      "byteOffset": 14912,
      "componentType": 5126,
      "count": 66,
      "max": [
        35.109310150146484,
        7.5439071655273438
      ],
      "min": [
        -35.109306335449219,
        -6.5730719566345215
      ],
      "type": "VEC2"
    },
    {
      "bufferView": 0,
      "byteOffset": 11928,
      "componentType": 5125,
      "count": 138,
      "max": [
        65
      ],
      "min": [
        0
      ],
      "type": "SCALAR"
    },
    {
      "bufferView": 2,
      "byteOffset": 46320,
      "componentType": 5126,
      "count": 144,
      "max": [
        29.527559280395508,
        -0.78740167617797852,
        8.6614179611206055
      ],
      "min": [
        -29.527559280395508,
        -14.566928863525391,
        7.0866146087646484
      ],
      "type": "VEC3"
    },
    {
      "bufferView": 2,
      "byteOffset": 48048,
      "componentType": 5126,
      "count": 144,
      "max": [
        0.96412867307662964,
        0.96412849426269531,
        0.96412789821624756
      ],
      "min": [
        -0.96412861347198486,
        -0.96412867307662964,
        -0.96412867307662964
      ],
      "type": "VEC3"
    },
    {
      "bufferView": 3,
      "byteOffset": 30880,
      "componentType": 5126,
      "count": 144,
      "max": [
        0.98189163208007812,
        0.98189151287078857,
        0.83580464124679565,
        1
      ],
      "min": [
        -0.98189163208007812,
        -0.98189175128936768,
        -0.83580559492111206,
        1
      ],
      "type": "VEC4"
    },
    {
      "bufferView": 1,
      "byteOffset": 15440,
      "componentType": 5126,
      "count": 144,
      "max": [
        1.2485857009887695,
        0.65606200695037842
      ],
      "min": [
        -0.24858576059341431,
        0.31479591131210327
      ],
      "type": "VEC2"
    },
    {
      "bufferView": 1,
      "byteOffset": 16592,
      "componentType": 5126,
      "count": 144,
      "max": [
        1.2485857009887695,
        0.65606200695037842
      ],
      "min": [
        -0.24858576059341431,
        0.31479591131210327
      ],
      "type": "VEC2"
    },
    {
      "bufferView": 0,
      "byteOffset": 12480,
      "componentType": 5125,
      "count": 564,
      "max": [
        143
      ],
      "min": [
        0
      ],
      "type": "SCALAR"
    },
    {
      "bufferView": 2,
      "byteOffset": 49776,
      "componentType": 5126,
      "count": 462,
      "max": [
        0.19685038924217224,
        9.8425197601318359,
        31.496063232421875
      ],
      "min": [
        -1.7716537714004517,
        -9.8425197601318359,
        -74.803146362304688
      ],
      "type": "VEC3"
    },
    {
      "bufferView": 2,
      "byteOffset": 55320,
      "componentType": 5126,
      "count": 462,
      "max": [
        1,
        1,
        1
      ],
      "min": [
        -1,
        -1,
        -1
      ],
      "type": "VEC3"
    },
    {
      "bufferView": 3,
      "byteOffset": 33184,
      "componentType": 5126,
      "count": 462,
      "max": [
        1,
        0.98480784893035889,
        5.7819843277684413e-06,
        1
      ],
      "min": [
        -1,
        -1,
        -5.4587676459050272e-06,
        -1
      ],
      "type": "VEC4"
    },
    {
      "bufferView": 1,
      "byteOffset": 17744,
      "componentType": 5126,
      "count": 462,
      "max": [
        1.0277777910232544,
        9.4005832672119141
      ],
      "min": [
        -6.7135688368580304e-06,
        -8.4005832672119141
      ],
      "type": "VEC2"
    },
    {
      "bufferView": 0,
      "byteOffset": 14736,
      "componentType": 5125,
      "count": 912,
      "max": [
        461
      ],
      "min": [
        0
      ],
      "type": "SCALAR"
    },
    {
      "bufferView": 2,
      "byteOffset": 60864,
      "componentType": 5126,
      "count": 32,
      "max": [
        0.19685038924217224,
        9.8425197601318359,
        31.496063232421875
      ],
      "min": [
        -1.7716537714004517,
        -9.8425197601318359,
        0
      ],
      "type": "VEC3"
    },
    {
      "bufferView": 2,
      "byteOffset": 61248,
      "componentType": 5126,
      "count": 32,
      "max": [
        1,
        0,
        1.8412503098904482e-16
      ],
      "min": [
        -1,
        0,
        1.1507811955273463e-17
      ],
      "type": "VEC3"
    },
    {
      "bufferView": 3,
      "byteOffset": 40576,
      "componentType": 5126,
      "count": 32,
      "max": [
        1.0050956310600158e-21,
        1,
        5.4587676459050272e-06,
        1
      ],
      "min": [
        -9.3897086136014075e-22,
        1,
        -5.4587676459050272e-06,
        -1
      ],
      "type": "VEC4"
    },
    {
      "bufferView": 1,
      "byteOffset": 21440,
      "componentType": 5126,
      "count": 32,
      "max": [
        1,
        1
      ],
      "min": [
        0,
        0
      ],
      "type": "VEC2"
    },
    {
      "bufferView": 0,
      "byteOffset": 18384,
      "componentType": 5125,
      "count": 84,
      "max": [
        31
      ],
      "min": [
        0
      ],
      "type": "SCALAR"
    }
  ],
  "asset": {
    "extras": {
      "author": "Tom Miller (https://sketchfab.com/Zee.Lyrics)",
      "license": "CC-BY-SA-4.0 (http://creativecommons.org/licenses/by-sa/4.0/)",
      "source": "https://sketchfab.com/models/7850f94485bd4fcfb0a6e48d4f3f3943",
      "title": "Bus Stop"
    },
    "generator": "Sketchfab-3.43.3",
    "version": "2.0"
  },
  "bufferViews": [
    {
      "buffer": 0,
      "byteLength": 18720,
      "byteOffset": 0,
      "name": "floatBufferViews",
      "target": 34963
    },
    {
      "buffer": 0,
      "byteLength": 21696,
      "byteOffset": 18720,
      "byteStride": 8,
      "name": "floatBufferViews",
      "target": 34962
    },
    {
      "buffer": 0,
      "byteLength": 61632,
      "byteOffset": 40416,
      "byteStride": 12,
      "name": "floatBufferViews",
      "target": 34962
    },
    {
      "buffer": 0,
      "byteLength": 41088,
      "byteOffset": 102048,
      "byteStride": 16,
      "name": "floatBufferViews",
      "target": 34962
    }
  ],
  "buffers": [
    {
      "byteLength": 143136,
      "uri": "scene.bin"
    }
  ],
  "materials": [
    {
      "doubleSided": true,
      "emissiveFactor": [
        0,
        0,
        0
      ],
      "name": "glass",
      "pbrMetallicRoughness": {
        "baseColorFactor": [
          0.69803899999999997,
          0.83529399999999998,
          0.83529399999999998,
          1
        ],
        "metallicFactor": 0,
        "roughnessFactor": 0.49088311750000002
      }
    },
    {
      "doubleSided": true,
      "emissiveFactor": [
        0,
        0,
        0
      ],
      "name": "metall",
      "pbrMetallicRoughness": {
        "baseColorFactor": [
          0.12548999999999999,
          0.12548999999999999,
          0.12548999999999999,
          1
        ],
        "metallicFactor": 0,
        "roughnessFactor": 0.60741712729999997
      }
    },
    {
      "doubleSided": true,
      "emissiveFactor": [
        0,
        0,
        0
      ],
      "name": "reklama",
      "pbrMetallicRoughness": {
        "baseColorFactor": [
          0.58799999999999997,
          0.58799999999999997,
          0.58799999999999997,
          1
        ],
        "metallicFactor": 0,
        "roughnessFactor": 0.52497713410000002
      }
    },
    {
      "doubleSided": true,
      "emissiveFactor": [
        0,
        0,
        0
      ],
      "name": "glass2",
      "pbrMetallicRoughness": {
        "baseColorFactor": [
          0.69803899999999997,
          0.83529399999999998,
          0.83529399999999998,
          1
        ],
        "metallicFactor": 0,
        "roughnessFactor": 0.89297135959999996
      }
    },
    {
      "doubleSided": true,
      "emissiveFactor": [
        0,
        0,
        0
      ],
      "name": "sofa",
      "pbrMetallicRoughness": {
        "baseColorFactor": [
          0.58799999999999997,
          0.58799999999999997,
          0.58799999999999997,
          1
        ],
        "metallicFactor": 0,
        "roughnessFactor": 0.87916847090000005
      }
    },
    {
      "doubleSided": true,
      "emissiveFactor": [
        0,
        0,
        0
      ],
      "name": "bus_stop_sign",
      "pbrMetallicRoughness": {
        "baseColorFactor": [
          0.58799999999999997,
          0.58799999999999997,
          0.58799999999999997,
          1
        ],
        "metallicFactor": 0,
        "roughnessFactor": 0.85123896230000007
      }
    }
  ],
  "meshes": [
    {
      "name": "bus_stop_glass_0",
      "primitives": [
        {
          "attributes": {
            "NORMAL": 1,
            "POSITION": 0,
            "TANGENT": 2,
            "TEXCOORD_0": 3
          },
          "indices": 4,
          "material": 0,
          "mode": 4
        }
      ]
    },
    {
      "name": "bus_stop_metall_0",
      "primitives": [
        {
          "attributes": {
            "NORMAL": 6,
            "POSITION": 5,
            "TANGENT": 7,
            "TEXCOORD_0": 8
          },
          "indices": 9,
          "material": 1,
          "mode": 4
        }
      ]
    },
    {
      "name": "bus_stop_reklama_0",
      "primitives": [
        {
          "attributes": {
            "NORMAL": 11,
            "POSITION": 10,
            "TANGENT": 12,
            "TEXCOORD_0": 13
          },
          "indices": 14,
          "material": 2,
          "mode": 4
        }
      ]
    },
    {
      "name": "bus_stop_glass2_0",
      "primitives": [
        {
          "attributes": {
            "NORMAL": 16,
            "POSITION": 15,
            "TANGENT": 17,
            "TEXCOORD_0": 18
          },
          "indices": 19,
          "material": 3,
          "mode": 4
        }
      ]
    },
    {
      "name": "bus_stop_sofa_0",
      "primitives": [
        {
          "attributes": {
            "NORMAL": 21,
            "POSITION": 20,
            "TANGENT": 22,
            "TEXCOORD_0": 23,
            "TEXCOORD_1": 24
          },
          "indices": 25,
          "material": 4,
          "mode": 4
        }
      ]
    },
    {
      "name": "sign_metall_0",
      "primitives": [
        {
          "attributes": {
            "NORMAL": 27,
            "POSITION": 26,
            "TANGENT": 28,
            "TEXCOORD_0": 29
          },
          "indices": 30,
          "material": 1,
          "mode": 4
        }
      ]
    },
    {
      "name": "sign_bus_stop_sign_0",
      "primitives": [
        {
          "attributes": {
            "NORMAL": 32,
            "POSITION": 31,
            "TANGENT": 33,
            "TEXCOORD_0": 34
          },
          "indices": 35,
          "material": 5,
          "mode": 4
        }
      ]
    }
  ],
  "nodes": [
    {
      "children": [
        1
      ],
      "name": "RootNode (gltf orientation matrix)",
      "rotation": [
        -0.70710678118654746,
        -0,
        -0,
        0.70710678118654757
      ]
    },
    {
      "children": [
        2
      ],
      "name": "RootNode (model correction matrix)"
    },
    {
      "children": [
        3
      ],
      "matrix": [
        1,
        0,
        0,
        0,
        0,
        0,
        1,
        0,
        0,
        -1,
        0,
        0,
        0,
        0,
        0,
        1
      ],
      "name": "ac8f25ee29ed413e95ca68d6ef505f04.fbx"
    },
    {
      "children": [
        4,
        10
      ],
      "name": "RootNode"
    },
    {
      "children": [
        5,
        6,
        7,
        8,
        9
      ],
      "matrix": [
        1,
        0,
        0,
        0,
        0,
        2.2204460492503131e-16,
        -1,
        0,
        0,
        1,
        2.2204460492503131e-16,
        0,
        59.055118560791016,
        10.629920959472656,
        0,
        1
      ],
      "name": "bus_stop"
    },
    {
      "mesh": 0,
      "name": "bus_stop_glass_0"
    },
    {
      "mesh": 1,
      "name": "bus_stop_metall_0"
    },
    {
      "mesh": 2,
      "name": "bus_stop_reklama_0"
    },
    {
      "mesh": 3,
      "name": "bus_stop_glass2_0"
    },
    {
      "mesh": 4,
      "name": "bus_stop_sofa_0"
    },
    {
      "children": [
        11,
        12
      ],
      "matrix": [
        1,
        0,
        0,
        0,
        0,
        2.2204460492503131e-16,
        -1,
        0,
        0,
        1,
        2.2204460492503131e-16,
        0,
        -25.863227844238281,
        74.803146362304688,
        92.658088684082031,
        1
      ],
      "name": "sign"
    },
    {
      "mesh": 5,
      "name": "sign_metall_0"
    },
    {
      "mesh": 6,
      "name": "sign_bus_stop_sign_0"
    }
  ],
  "scene": 0,
  "scenes": [
    {
      "name": "OSG_Scene",
      "nodes": [
        0
      ]
    }
  ]
}

