{
  "accessors": [
    {
      "bufferView": 1,
      "componentType": 5126,
      "count": 26,
      "max": [
        -632.4423217773438,
        1910.010986328125,
        329.57122802734375
      ],
      "min": [
        -1021.0859985351563,
        988.0,
        329.57122802734375
      ],
      "type": "VEC3"
    },
    {
      "bufferView": 1,
      "byteOffset": 312,
      "componentType": 5126,
      "count": 26,
      "max": [
        0.0,
        0.0,
        1.0
      ],
      "min": [
        0.0,
        0.0,
        -1.0
      ],
      "type": "VEC3"
    },
    {
      "bufferView": 0,
      "componentType": 5125,
      "count": 66,
      "type": "SCALAR"
    },
    {
      "bufferView": 1,
      "byteOffset": 624,
      "componentType": 5126,
      "count": 145,
      "max": [
        1692.1015625,
        1934.588134765625,
        537.1414794921875
      ],
      "min": [
        -1692.13134765625,
        -1934.6407470703125,
        -0.0014751000562682748
      ],
      "type": "VEC3"
    },
    {
      "bufferView": 0,
      "byteOffset": 264,
      "componentType": 5125,
      "count": 422,
      "type": "SCALAR"
    },
    {
      "bufferView": 1,
      "byteOffset": 2364,
      "componentType": 5126,
      "count": 12,
      "max": [
        214.3771209716797,
        -1041.99267578125,
        385.2143859863281
      ],
      "min": [
        -1678.061767578125,
        -1751.525634765625,
        362.8929748535156
      ],
      "type": "VEC3"
    },
    {
      "bufferView": 1,
      "byteOffset": 2508,
      "componentType": 5126,
      "count": 12,
      "max": [
        0.1769012212753296,
        0.4984808564186096,
        0.8945060968399048
      ],
      "min": [
        -0.1769012212753296,
        -0.4984808564186096,
        -0.8945060968399048
      ],
      "type": "VEC3"
    },
    {
      "bufferView": 0,
      "byteOffset": 1952,
      "componentType": 5125,
      "count": 12,
      "type": "SCALAR"
    },
    {
      "bufferView": 1,
      "byteOffset": 2652,
      "componentType": 5126,
      "count": 14,
      "max": [
        202.45506286621094,
        -1084.1671142578125,
        385.2143859863281
      ],
      "min": [
        -1692.13134765625,
        -1783.4215087890625,
        363.8594970703125
      ],
      "type": "VEC3"
    },
    {
      "bufferView": 1,
      "byteOffset": 2820,
      "componentType": 5126,
      "count": 14,
      "max": [
        0.17690110206604004,
        0.4984810948371887,
        0.8945248126983643
      ],
      "min": [
        -0.17690110206604004,
        -0.4984810948371887,
        -0.8945248126983643
      ],
      "type": "VEC3"
    },
    {
      "bufferView": 0,
      "byteOffset": 2000,
      "componentType": 5125,
      "count": 18,
      "type": "SCALAR"
    },
    {
      "bufferView": 1,
      "byteOffset": 2988,
      "componentType": 5126,
      "count": 32,
      "max": [
        1318.3453369140625,
        1934.588134765625,
        401.8489074707031
      ],
      "min": [
        -866.7894287109375,
        486.4102783203125,
        375.7850646972656
      ],
      "type": "VEC3"
    },
    {
      "bufferView": 1,
      "byteOffset": 3372,
      "componentType": 5126,
      "count": 32,
      "max": [
        0.06111010164022446,
        0.1755409985780716,
        1.0
      ],
      "min": [
        -0.06111010164022446,
        -0.1755409985780716,
        -1.0
      ],
      "type": "VEC3"
    },
    {
      "bufferView": 0,
      "byteOffset": 2072,
      "componentType": 5125,
      "count": 66,
      "type": "SCALAR"
    },
    {
      "bufferView": 1,
      "byteOffset": 3756,
      "componentType": 5126,
      "count": 66,
      "max": [
        1692.1015625,
        1755.4093017578125,
        419.8186340332031
      ],
      "min": [
        -651.1875,
        -1934.6407470703125,
        401.255615234375
      ],
      "type": "VEC3"
    },
    {
      "bufferView": 1,
      "byteOffset": 4548,
      "componentType": 5126,
      "count": 66,
      "max": [
        0.0,
        0.0,
        1.0
      ],
      "min": [
        0.0,
        0.0,
        -1.0
      ],
      "type": "VEC3"
    },
    {
      "bufferView": 0,
      "byteOffset": 2336,
      "componentType": 5125,
      "count": 174,
      "type": "SCALAR"
    },
    {
      "bufferView": 1,
      "byteOffset": 5340,
      "componentType": 5126,
      "count": 42,
      "max": [
        1010.752197265625,
        1239.4554443359375,
        537.1414794921875
      ],
      "min": [
        -1663.3560791015625,
        -1717.7547607421875,
        537.1414794921875
      ],
      "type": "VEC3"
    },
    {
      "bufferView": 1,
      "byteOffset": 5844,
      "componentType": 5126,
      "count": 42,
      "max": [
        0.0,
        0.0,
        1.0
      ],
      "min": [
        0.0,
        0.0,
        -1.0
      ],
      "type": "VEC3"
    },
    {
      "bufferView": 0,
      "byteOffset": 3032,
      "componentType": 5125,
      "count": 114,
      "type": "SCALAR"
    },
    {
      "bufferView": 1,
      "byteOffset": 6348,
      "componentType": 5126,
      "count": 351,
      "max": [
        1692.1015625,
        1934.588134765625,
        537.1414794921875
      ],
      "min": [
        -1692.13134765625,
        -1934.6407470703125,
        -0.0014751000562682748
      ],
      "type": "VEC3"
    },
    {
      "bufferView": 1,
      "byteOffset": 10560,
      "componentType": 5126,
      "count": 351,
      "max": [
        0.9441685080528259,
        0.9454632997512817,
        0.0029209000058472157
      ],
      "min": [
        -0.9995568990707397,
        -0.9454634189605713,
        -1.0
      ],
      "type": "VEC3"
    },
    {
      "bufferView": 0,
      "byteOffset": 3488,
      "componentType": 5125,
      "count": 642,
      "type": "SCALAR"
    }
  ],
  "asset": {
    "extras": {
      "author": "natalia.chojnacka (https://sketchfab.com/natalia.chojnacka)",
      "license": "CC-BY-4.0 (http://creativecommons.org/licenses/by/4.0/)",
      "source": "https://sketchfab.com/3d-models/polityczny-ed4d7a6873404abf960c56c09fb42efe",
      "title": "polityczny"
    },
    "generator": "Sketchfab-12.37.0",
    "version": "2.0"
  },
  "bufferViews": [
    {
      "buffer": 0,
      "byteLength": 6056,
      "name": "floatBufferViews",
      "target": 34963
    },
    {
      "buffer": 0,
      "byteLength": 14772,
      "byteOffset": 6056,
      "byteStride": 12,
      "name": "floatBufferViews",
      "target": 34962
    }
  ],
  "buffers": [
    {
      "byteLength": 20828,
      "uri": "scene.bin"
    }
  ],
  "materials": [
    {
      "name": "auto_2",
      "pbrMetallicRoughness": {
        "baseColorFactor": [
          0.529412,
          0.568627,
          0.572549,
          1.0
        ],
        "metallicFactor": 0.0,
        "roughnessFactor": 0.6
      }
    },
    {
      "name": "edge_color000255",
      "pbrMetallicRoughness": {
        "metallicFactor": 0.0,
        "roughnessFactor": 0.6
      }
    },
    {
      "name": "auto",
      "pbrMetallicRoughness": {
        "baseColorFactor": [
          0.529412,
          0.568627,
          0.572549,
          1.0
        ],
        "metallicFactor": 0.0,
        "roughnessFactor": 0.6
      }
    },
    {
      "name": "auto_1",
      "pbrMetallicRoughness": {
        "baseColorFactor": [
          0.529412,
          0.568627,
          0.572549,
          1.0
        ],
        "metallicFactor": 0.0,
        "roughnessFactor": 0.6
      }
    },
    {
      "name": "auto_3",
      "pbrMetallicRoughness": {
        "baseColorFactor": [
          0.529412,
          0.568627,
          0.572549,
          1.0
        ],
        "metallicFactor": 0.0,
        "roughnessFactor": 0.6
      }
    },
    {
      "name": "auto_4",
      "pbrMetallicRoughness": {
        "baseColorFactor": [
          0.529412,
          0.568627,
          0.572549,
          1.0
        ],
        "metallicFactor": 0.0,
        "roughnessFactor": 0.6
      }
    },
    {
      "name": "auto_5",
      "pbrMetallicRoughness": {
        "baseColorFactor": [
          0.529412,
          0.568627,
          0.572549,
          1.0
        ],
        "metallicFactor": 0.0,
        "roughnessFactor": 0.6
      }
    },
    {
      "name": "material",
      "pbrMetallicRoughness": {
        "baseColorFactor": [
          0.882353,
          0.882353,
          0.784314,
          1.0
        ],
        "metallicFactor": 0.0,
        "roughnessFactor": 0.6
      }
    }
  ],
  "meshes": [
    {
      "name": "Material2",
      "primitives": [
        {
          "attributes": {
            "NORMAL": 1,
            "POSITION": 0
          },
          "indices": 2,
          "material": 0,
          "mode": 4
        }
      ]
    },
    {
      "name": "Material3",
      "primitives": [
        {
          "attributes": {
            "POSITION": 3
          },
          "indices": 4,
          "material": 1,
          "mode": 1
        }
      ]
    },
    {
      "name": "Material2",
      "primitives": [
        {
          "attributes": {
            "NORMAL": 6,
            "POSITION": 5
          },
          "indices": 7,
          "material": 2,
          "mode": 4
        }
      ]
    },
    {
      "name": "Material2",
      "primitives": [
        {
          "attributes": {
            "NORMAL": 9,
            "POSITION": 8
          },
          "indices": 10,
          "material": 3,
          "mode": 4
        }
      ]
    },
    {
      "name": "Material2",
      "primitives": [
        {
          "attributes": {
            "NORMAL": 12,
            "POSITION": 11
          },
          "indices": 13,
          "material": 4,
          "mode": 4
        }
      ]
    },
    {
      "name": "Material2",
      "primitives": [
        {
          "attributes": {
            "NORMAL": 15,
            "POSITION": 14
          },
          "indices": 16,
          "material": 5,
          "mode": 4
        }
      ]
    },
    {
      "name": "Material2",
      "primitives": [
        {
          "attributes": {
            "NORMAL": 18,
            "POSITION": 17
          },
          "indices": 19,
          "material": 6,
          "mode": 4
        }
      ]
    },
    {
      "name": "Material2",
      "primitives": [
        {
          "attributes": {
            "NORMAL": 21,
            "POSITION": 20
          },
          "indices": 22,
          "material": 7,
          "mode": 4
        }
      ]
    }
  ],
  "nodes": [
    {
      "children": [
        1
      ],
      "matrix": [
        1.0,
        0.0,
        0.0,
        0.0,
        0.0,
        2.220446049250313e-16,
        -1.0,
        0.0,
        0.0,
        1.0,
        2.220446049250313e-16,
        0.0,
        0.0,
        0.0,
        0.0,
        1.0
      ],
      "name": "Sketchfab_model"
    },
    {
      "children": [
        2,
        3,
        4,
        5,
        6,
        7,
        8,
        9,
        10
      ],
      "name": "Collada visual scene group"
    },
    {
      "mesh": 0,
      "name": "Material2"
    },
    {
      "mesh": 1,
      "name": "Material3"
    },
    {
      "mesh": 2,
      "name": "Material2"
    },
    {
      "mesh": 3,
      "name": "Material2"
    },
    {
      "mesh": 4,
      "name": "Material2"
    },
    {
      "mesh": 5,
      "name": "Material2"
    },
    {
      "mesh": 6,
      "name": "Material2"
    },
    {
      "mesh": 7,
      "name": "Material2"
    },
    {
      "children": [
        11
      ],
      "name": "SketchUp"
    },
    {
      "children": [
        12
      ],
      "matrix": [
        1.0,
        0.0,
        0.0,
        0.0,
        0.0,
        1.0,
        0.0,
        0.0,
        0.0,
        0.0,
        1.0,
        0.0,
        2392.1430664,
        -987.5820312,
        10192.0419922,
        1.0
      ],
      "name": "skp_camera_Last_Saved_SketchUp_View"
    },
    {
      "name": "ID1"
    }
  ],
  "scene": 0,
  "scenes": [
    {
      "name": "Sketchfab_Scene",
      "nodes": [
        0
      ]
    }
  ]
}
