{
  "accessors": [
    {
      "bufferView": 1,
      "componentType": 5126,
      "count": 1309,
      "max": [
        135.56341552734375,
        3147.844970703125,
        4292.912109375
      ],
      "min": [
        -8052.21337890625,
        -6755.29736328125,
        3455.11669921875
      ],
      "type": "VEC3"
    },
    {
      "bufferView": 0,
      "componentType": 5125,
      "count": 3980,
      "type": "SCALAR"
    },
    {
      "bufferView": 1,
      "byteOffset": 15708,
      "componentType": 5126,
      "count": 4321,
      "max": [
        135.56341552734375,
        3147.844970703125,
        4292.912109375
      ],
      "min": [
        -8052.21337890625,
        -6755.29736328125,
        3455.11669921875
      ],
      "type": "VEC3"
    },
    {
      "bufferView": 1,
      "byteOffset": 67560,
      "componentType": 5126,
      "count": 4321,
      "max": [
        0.9995893239974976,
        0.9977164268493652,
        1.0
      ],
      "min": [
        -0.9992024898529053,
        -0.9974550008773804,
        -1.0
      ],
      "type": "VEC3"
    },
    {
      "bufferView": 0,
      "byteOffset": 15920,
      "componentType": 5125,
      "count": 7713,
      "type": "SCALAR"
    }
  ],
  "asset": {
    "extras": {
      "author": "natalia.chojnacka (https://sketchfab.com/natalia.chojnacka)",
      "license": "CC-BY-4.0 (http://creativecommons.org/licenses/by/4.0/)",
      "source": "https://sketchfab.com/3d-models/fiz-42a5d8cac9e64d798d0e453472c75c1f",
      "title": "Fiz"
    },
    "generator": "Sketchfab-12.38.1",
    "version": "2.0"
  },
  "bufferViews": [
    {
      "buffer": 0,
      "byteLength": 46772,
      "name": "floatBufferViews",
      "target": 34963
    },
    {
      "buffer": 0,
      "byteLength": 119412,
      "byteOffset": 46772,
      "byteStride": 12,
      "name": "floatBufferViews",
      "target": 34962
    }
  ],
  "buffers": [
    {
      "byteLength": 166184,
      "uri": "scene.bin"
    }
  ],
  "materials": [
    {
      "name": "edge_color000255",
      "pbrMetallicRoughness": {
        "metallicFactor": 0.0,
        "roughnessFactor": 0.6
      }
    },
    {
      "name": "material",
      "pbrMetallicRoughness": {
        "baseColorFactor": [
          0.882353,
          0.882353,
          0.784314,
          1.0
        ],
        "metallicFactor": 0.0,
        "roughnessFactor": 0.6
      }
    }
  ],
  "meshes": [
    {
      "name": "Material3",
      "primitives": [
        {
          "attributes": {
            "POSITION": 0
          },
          "indices": 1,
          "material": 0,
          "mode": 1
        }
      ]
    },
    {
      "name": "Material2",
      "primitives": [
        {
          "attributes": {
            "NORMAL": 3,
            "POSITION": 2
          },
          "indices": 4,
          "material": 1,
          "mode": 4
        }
      ]
    }
  ],
  "nodes": [
    {
      "children": [
        1
      ],
      "matrix": [
        1.0,
        0.0,
        0.0,
        0.0,
        0.0,
        2.220446049250313e-16,
        -1.0,
        0.0,
        0.0,
        1.0,
        2.220446049250313e-16,
        0.0,
        0.0,
        0.0,
        0.0,
        1.0
      ],
      "name": "Sketchfab_model"
    },
    {
      "children": [
        2,
        3,
        4
      ],
      "name": "Collada visual scene group"
    },
    {
      "mesh": 0,
      "name": "Material3"
    },
    {
      "mesh": 1,
      "name": "Material2"
    },
    {
      "children": [
        5
      ],
      "name": "SketchUp"
    },
    {
      "children": [
        6
      ],
      "matrix": [
        0.9783959,
        -0.2067399,
        0.0,
        0.0,
        0.0888051,
        0.4202701,
        0.903043,
        0.0,
        -0.186695,
        -0.8835337,
        0.4295501,
        0.0,
        -7533.1113281,
        -19188.1699219,
        12100.1230469,
        1.0
      ],
      "name": "skp_camera_Last_Saved_SketchUp_View"
    },
    {
      "name": "ID1"
    }
  ],
  "scene": 0,
  "scenes": [
    {
      "name": "Sketchfab_Scene",
      "nodes": [
        0
      ]
    }
  ]
}
