{
  "accessors": [
    {
      "bufferView": 1,
      "componentType": 5126,
      "count": 367,
      "max": [
        2855.20166015625,
        2839.696533203125,
        625.7202758789063
      ],
      "min": [
        -2854.65771484375,
        -2874.98291015625,
        -0.0014752000570297241
      ],
      "type": "VEC3"
    },
    {
      "bufferView": 0,
      "componentType": 5125,
      "count": 1076,
      "type": "SCALAR"
    },
    {
      "bufferView": 1,
      "byteOffset": 4404,
      "componentType": 5126,
      "count": 22,
      "max": [
        241.48983764648438,
        -2067.322509765625,
        366.27142333984375
      ],
      "min": [
        -453.1256103515625,
        -2874.98291015625,
        366.27142333984375
      ],
      "type": "VEC3"
    },
    {
      "bufferView": 1,
      "byteOffset": 4668,
      "componentType": 5126,
      "count": 22,
      "max": [
        0.0,
        0.0,
        1.0
      ],
      "min": [
        0.0,
        0.0,
        -1.0
      ],
      "type": "VEC3"
    },
    {
      "bufferView": 0,
      "byteOffset": 4304,
      "componentType": 5125,
      "count": 54,
      "type": "SCALAR"
    },
    {
      "bufferView": 1,
      "byteOffset": 4932,
      "componentType": 5126,
      "count": 16,
      "max": [
        453.2305603027344,
        -1898.41748046875,
        337.92498779296875
      ],
      "min": [
        41.08393478393555,
        -2837.0380859375,
        337.92498779296875
      ],
      "type": "VEC3"
    },
    {
      "bufferView": 1,
      "byteOffset": 5124,
      "componentType": 5126,
      "count": 16,
      "max": [
        0.0,
        0.0,
        1.0
      ],
      "min": [
        0.0,
        0.0,
        -1.0
      ],
      "type": "VEC3"
    },
    {
      "bufferView": 0,
      "byteOffset": 4520,
      "componentType": 5125,
      "count": 36,
      "type": "SCALAR"
    },
    {
      "bufferView": 1,
      "byteOffset": 5316,
      "componentType": 5126,
      "count": 68,
      "max": [
        156.8760528564453,
        -1432.8773193359375,
        206.03521728515625
      ],
      "min": [
        -1721.7296142578125,
        -2841.258056640625,
        195.8524627685547
      ],
      "type": "VEC3"
    },
    {
      "bufferView": 1,
      "byteOffset": 6132,
      "componentType": 5126,
      "count": 68,
      "max": [
        0.0,
        0.0,
        1.0
      ],
      "min": [
        0.0,
        0.0,
        -1.0
      ],
      "type": "VEC3"
    },
    {
      "bufferView": 0,
      "byteOffset": 4664,
      "componentType": 5125,
      "count": 168,
      "type": "SCALAR"
    },
    {
      "bufferView": 1,
      "byteOffset": 6948,
      "componentType": 5126,
      "count": 12,
      "max": [
        747.778076171875,
        -101.68478393554688,
        196.1927032470703
      ],
      "min": [
        130.79994201660156,
        -522.5487060546875,
        196.1927032470703
      ],
      "type": "VEC3"
    },
    {
      "bufferView": 1,
      "byteOffset": 7092,
      "componentType": 5126,
      "count": 12,
      "max": [
        0.0,
        0.0,
        1.0
      ],
      "min": [
        0.0,
        0.0,
        -1.0
      ],
      "type": "VEC3"
    },
    {
      "bufferView": 0,
      "byteOffset": 5336,
      "componentType": 5125,
      "count": 24,
      "type": "SCALAR"
    },
    {
      "bufferView": 1,
      "byteOffset": 7236,
      "componentType": 5126,
      "count": 86,
      "max": [
        1689.821044921875,
        2799.349609375,
        625.7202758789063
      ],
      "min": [
        -2608.55078125,
        -2019.217041015625,
        608.7911376953125
      ],
      "type": "VEC3"
    },
    {
      "bufferView": 1,
      "byteOffset": 8268,
      "componentType": 5126,
      "count": 86,
      "max": [
        0.0,
        0.0,
        1.0
      ],
      "min": [
        0.0,
        0.0,
        -1.0
      ],
      "type": "VEC3"
    },
    {
      "bufferView": 0,
      "byteOffset": 5432,
      "componentType": 5125,
      "count": 186,
      "type": "SCALAR"
    },
    {
      "bufferView": 1,
      "byteOffset": 9300,
      "componentType": 5126,
      "count": 18,
      "max": [
        2017.7972412109375,
        881.2678833007813,
        497.7674865722656
      ],
      "min": [
        794.9248046875,
        -1929.2449951171875,
        383.2005615234375
      ],
      "type": "VEC3"
    },
    {
      "bufferView": 1,
      "byteOffset": 9516,
      "componentType": 5126,
      "count": 18,
      "max": [
        0.37120482325553894,
        0.12942251563072205,
        0.9197809100151062
      ],
      "min": [
        -0.37120482325553894,
        -0.12942251563072205,
        -0.9197809100151062
      ],
      "type": "VEC3"
    },
    {
      "bufferView": 0,
      "byteOffset": 6176,
      "componentType": 5125,
      "count": 30,
      "type": "SCALAR"
    },
    {
      "bufferView": 1,
      "byteOffset": 9732,
      "componentType": 5126,
      "count": 84,
      "max": [
        2855.20166015625,
        1164.419677734375,
        365.4840393066406
      ],
      "min": [
        1067.1348876953125,
        -1966.1971435546875,
        352.09820556640625
      ],
      "type": "VEC3"
    },
    {
      "bufferView": 1,
      "byteOffset": 10740,
      "componentType": 5126,
      "count": 84,
      "max": [
        0.0,
        0.0,
        1.0
      ],
      "min": [
        0.0,
        0.0,
        -1.0
      ],
      "type": "VEC3"
    },
    {
      "bufferView": 0,
      "byteOffset": 6296,
      "componentType": 5125,
      "count": 228,
      "type": "SCALAR"
    },
    {
      "bufferView": 1,
      "byteOffset": 11748,
      "componentType": 5126,
      "count": 28,
      "max": [
        1861.144775390625,
        1215.6026611328125,
        -0.0014356999890878797
      ],
      "min": [
        130.79994201660156,
        -524.4846801757813,
        -0.001435799989849329
      ],
      "type": "VEC3"
    },
    {
      "bufferView": 1,
      "byteOffset": 12084,
      "componentType": 5126,
      "count": 28,
      "max": [
        0.0,
        0.0,
        1.0
      ],
      "min": [
        0.0,
        0.0,
        -1.0
      ],
      "type": "VEC3"
    },
    {
      "bufferView": 0,
      "byteOffset": 7208,
      "componentType": 5125,
      "count": 48,
      "type": "SCALAR"
    },
    {
      "bufferView": 1,
      "byteOffset": 12420,
      "componentType": 5126,
      "count": 166,
      "max": [
        1949.9683837890625,
        2839.696533203125,
        511.94073486328125
      ],
      "min": [
        -2854.65771484375,
        -2092.85302734375,
        510.7596130371094
      ],
      "type": "VEC3"
    },
    {
      "bufferView": 1,
      "byteOffset": 14412,
      "componentType": 5126,
      "count": 166,
      "max": [
        0.538726270198822,
        0.0957719013094902,
        1.0
      ],
      "min": [
        -0.538726270198822,
        -0.0957719013094902,
        -1.0
      ],
      "type": "VEC3"
    },
    {
      "bufferView": 0,
      "byteOffset": 7400,
      "componentType": 5125,
      "count": 360,
      "type": "SCALAR"
    },
    {
      "bufferView": 1,
      "byteOffset": 16404,
      "componentType": 5126,
      "count": 840,
      "max": [
        2855.20166015625,
        2839.696533203125,
        625.7202758789063
      ],
      "min": [
        -2854.65771484375,
        -2874.98291015625,
        -0.0014752000570297241
      ],
      "type": "VEC3"
    },
    {
      "bufferView": 1,
      "byteOffset": 26484,
      "componentType": 5126,
      "count": 840,
      "max": [
        0.9922869205474854,
        0.9982808828353882,
        0.0037752999924123287
      ],
      "min": [
        -0.9881979823112488,
        -0.998534619808197,
        -1.0
      ],
      "type": "VEC3"
    },
    {
      "bufferView": 0,
      "byteOffset": 8840,
      "componentType": 5125,
      "count": 1641,
      "type": "SCALAR"
    }
  ],
  "asset": {
    "extras": {
      "author": "natalia.chojnacka (https://sketchfab.com/natalia.chojnacka)",
      "license": "CC-BY-4.0 (http://creativecommons.org/licenses/by/4.0/)",
      "source": "https://sketchfab.com/3d-models/wydzial-biologii-5dae61f7c6144032a95b1dbff46b44ab",
      "title": "wydzial biologii"
    },
    "generator": "Sketchfab-12.37.0",
    "version": "2.0"
  },
  "bufferViews": [
    {
      "buffer": 0,
      "byteLength": 15404,
      "name": "floatBufferViews",
      "target": 34963
    },
    {
      "buffer": 0,
      "byteLength": 36564,
      "byteOffset": 15404,
      "byteStride": 12,
      "name": "floatBufferViews",
      "target": 34962
    }
  ],
  "buffers": [
    {
      "byteLength": 51968,
      "uri": "scene.bin"
    }
  ],
  "materials": [
    {
      "name": "edge_color000255",
      "pbrMetallicRoughness": {
        "metallicFactor": 0.0,
        "roughnessFactor": 0.6
      }
    },
    {
      "name": "auto",
      "pbrMetallicRoughness": {
        "baseColorFactor": [
          0.517647,
          0.505882,
          0.494118,
          1.0
        ],
        "metallicFactor": 0.0,
        "roughnessFactor": 0.6
      }
    },
    {
      "name": "auto_1",
      "pbrMetallicRoughness": {
        "baseColorFactor": [
          0.517647,
          0.505882,
          0.494118,
          1.0
        ],
        "metallicFactor": 0.0,
        "roughnessFactor": 0.6
      }
    },
    {
      "name": "auto_2",
      "pbrMetallicRoughness": {
        "baseColorFactor": [
          0.517647,
          0.505882,
          0.494118,
          1.0
        ],
        "metallicFactor": 0.0,
        "roughnessFactor": 0.6
      }
    },
    {
      "name": "auto_3",
      "pbrMetallicRoughness": {
        "baseColorFactor": [
          0.439216,
          0.458823,
          0.470588,
          1.0
        ],
        "metallicFactor": 0.0,
        "roughnessFactor": 0.6
      }
    },
    {
      "name": "auto_4",
      "pbrMetallicRoughness": {
        "baseColorFactor": [
          0.439216,
          0.458823,
          0.470588,
          1.0
        ],
        "metallicFactor": 0.0,
        "roughnessFactor": 0.6
      }
    },
    {
      "name": "auto_5",
      "pbrMetallicRoughness": {
        "baseColorFactor": [
          0.439216,
          0.458823,
          0.470588,
          1.0
        ],
        "metallicFactor": 0.0,
        "roughnessFactor": 0.6
      }
    },
    {
      "name": "auto_6",
      "pbrMetallicRoughness": {
        "baseColorFactor": [
          0.439216,
          0.458823,
          0.470588,
          1.0
        ],
        "metallicFactor": 0.0,
        "roughnessFactor": 0.6
      }
    },
    {
      "name": "auto_7",
      "pbrMetallicRoughness": {
        "baseColorFactor": [
          0.439216,
          0.458823,
          0.470588,
          1.0
        ],
        "metallicFactor": 0.0,
        "roughnessFactor": 0.6
      }
    },
    {
      "name": "auto_8",
      "pbrMetallicRoughness": {
        "baseColorFactor": [
          0.439216,
          0.458823,
          0.470588,
          1.0
        ],
        "metallicFactor": 0.0,
        "roughnessFactor": 0.6
      }
    },
    {
      "name": "material",
      "pbrMetallicRoughness": {
        "baseColorFactor": [
          0.882353,
          0.882353,
          0.784314,
          1.0
        ],
        "metallicFactor": 0.0,
        "roughnessFactor": 0.6
      }
    }
  ],
  "meshes": [
    {
      "name": "Material3",
      "primitives": [
        {
          "attributes": {
            "POSITION": 0
          },
          "indices": 1,
          "material": 0,
          "mode": 1
        }
      ]
    },
    {
      "name": "Material2",
      "primitives": [
        {
          "attributes": {
            "NORMAL": 3,
            "POSITION": 2
          },
          "indices": 4,
          "material": 1,
          "mode": 4
        }
      ]
    },
    {
      "name": "Material2",
      "primitives": [
        {
          "attributes": {
            "NORMAL": 6,
            "POSITION": 5
          },
          "indices": 7,
          "material": 2,
          "mode": 4
        }
      ]
    },
    {
      "name": "Material2",
      "primitives": [
        {
          "attributes": {
            "NORMAL": 9,
            "POSITION": 8
          },
          "indices": 10,
          "material": 3,
          "mode": 4
        }
      ]
    },
    {
      "name": "Material2",
      "primitives": [
        {
          "attributes": {
            "NORMAL": 12,
            "POSITION": 11
          },
          "indices": 13,
          "material": 4,
          "mode": 4
        }
      ]
    },
    {
      "name": "Material2",
      "primitives": [
        {
          "attributes": {
            "NORMAL": 15,
            "POSITION": 14
          },
          "indices": 16,
          "material": 5,
          "mode": 4
        }
      ]
    },
    {
      "name": "Material2",
      "primitives": [
        {
          "attributes": {
            "NORMAL": 18,
            "POSITION": 17
          },
          "indices": 19,
          "material": 6,
          "mode": 4
        }
      ]
    },
    {
      "name": "Material2",
      "primitives": [
        {
          "attributes": {
            "NORMAL": 21,
            "POSITION": 20
          },
          "indices": 22,
          "material": 7,
          "mode": 4
        }
      ]
    },
    {
      "name": "Material2",
      "primitives": [
        {
          "attributes": {
            "NORMAL": 24,
            "POSITION": 23
          },
          "indices": 25,
          "material": 8,
          "mode": 4
        }
      ]
    },
    {
      "name": "Material2",
      "primitives": [
        {
          "attributes": {
            "NORMAL": 27,
            "POSITION": 26
          },
          "indices": 28,
          "material": 9,
          "mode": 4
        }
      ]
    },
    {
      "name": "Material2",
      "primitives": [
        {
          "attributes": {
            "NORMAL": 30,
            "POSITION": 29
          },
          "indices": 31,
          "material": 10,
          "mode": 4
        }
      ]
    }
  ],
  "nodes": [
    {
      "children": [
        1
      ],
      "matrix": [
        1.0,
        0.0,
        0.0,
        0.0,
        0.0,
        2.220446049250313e-16,
        -1.0,
        0.0,
        0.0,
        1.0,
        2.220446049250313e-16,
        0.0,
        0.0,
        0.0,
        0.0,
        1.0
      ],
      "name": "Sketchfab_model"
    },
    {
      "children": [
        2,
        3,
        4,
        5,
        6,
        7,
        8,
        9,
        10,
        11,
        12,
        13
      ],
      "name": "Collada visual scene group"
    },
    {
      "mesh": 0,
      "name": "Material3"
    },
    {
      "mesh": 1,
      "name": "Material2"
    },
    {
      "mesh": 2,
      "name": "Material2"
    },
    {
      "mesh": 3,
      "name": "Material2"
    },
    {
      "mesh": 4,
      "name": "Material2"
    },
    {
      "mesh": 5,
      "name": "Material2"
    },
    {
      "mesh": 6,
      "name": "Material2"
    },
    {
      "mesh": 7,
      "name": "Material2"
    },
    {
      "mesh": 8,
      "name": "Material2"
    },
    {
      "mesh": 9,
      "name": "Material2"
    },
    {
      "mesh": 10,
      "name": "Material2"
    },
    {
      "children": [
        14
      ],
      "name": "SketchUp"
    },
    {
      "children": [
        15
      ],
      "matrix": [
        0.614746,
        0.7887251,
        0.0,
        0.0,
        -0.5531573,
        0.4311404,
        0.7128359,
        0.0,
        0.5622316,
        -0.4382131,
        0.7013308,
        0.0,
        20764.8300781,
        -11804.1738281,
        15640.4121094,
        1.0
      ],
      "name": "skp_camera_Last_Saved_SketchUp_View"
    },
    {
      "name": "ID1"
    }
  ],
  "scene": 0,
  "scenes": [
    {
      "name": "Sketchfab_Scene",
      "nodes": [
        0
      ]
    }
  ]
}
